<?xml version="1.0" encoding="utf-8"?><!-- Uploaded to: SVG Repo, www.svgrepo.com, Generator: SVG Repo Mixer Tools -->
<svg width="800px" height="800px" viewBox="0 0 32 32" xmlns="http://www.w3.org/2000/svg"><title>file_type_codekit</title><circle cx="16" cy="16" r="14"/><path fill="#ff7700c7" d="M14.651,7.525l-.011-.011a1.556,1.556,0,0,0-2.2,0l-7.38,7.38a1.556,1.556,0,0,0,0,2.2l7.38,7.38a1.556,1.556,0,0,0,2.2,0l.011-.011a1.556,1.556,0,0,0,0-2.2L9.04,16.654a.933.933,0,0,1,0-1.32L14.65,9.725A1.556,1.556,0,0,0,14.651,7.525Z"/>
<path fill="#ff7700c7" d="M17.221,7.519l.011-.011a1.556,1.556,0,0,1,2.2,0l7.38,7.38a1.556,1.556,0,0,1,0,2.2l-7.38,7.38a1.556,1.556,0,0,1-2.2,0l-.011-.011a1.556,1.556,0,0,1,0-2.2l5.611-5.609a.933.933,0,0,0,0-1.32L17.221,9.719A1.556,1.556,0,0,1,17.221,7.519Z" /></svg>