<?xml version="1.0" encoding="iso-8859-1"?>
<!-- Uploaded to: SVG Repo, www.svgrepo.com, Generator: SVG Repo Mixer Tools -->
<svg fill="#000000" height="800px" width="800px" version="1.1" id="Layer_1" xmlns="http://www.w3.org/2000/svg" xmlns:xlink="http://www.w3.org/1999/xlink" 
	 viewBox="0 0 512 512" xml:space="preserve">
<g>
	<g>
		<path  fill="#ff7700c7" d="M256,0C136.384,0,42.667,42.176,42.667,96v320c0,53.824,93.717,96,213.333,96s213.333-42.176,213.333-96V96
			C469.333,42.176,375.616,0,256,0z M448,416c0,35.307-78.848,74.667-192,74.667S64,451.307,64,416v-64.384
			c34.197,32.043,106.347,53.717,192,53.717s157.803-21.675,192-53.717V416z M448,309.333C448,344.64,369.152,384,256,384
			S64,344.64,64,309.333v-64.384c34.197,32.043,106.347,53.717,192,53.717s157.803-21.675,192-53.717V309.333z M448,202.667
			c0,35.307-78.848,74.667-192,74.667s-192-39.36-192-74.667v-64.384C98.197,170.325,170.347,192,256,192s157.803-21.675,192-53.717
			V202.667z M256,170.667c-113.152,0-192-39.36-192-74.667c0-35.307,78.848-74.667,192-74.667S448,60.693,448,96
			C448,131.307,369.152,170.667,256,170.667z"/>
	</g>
</g>
</svg>