<?xml version="1.0" encoding="UTF-8"?>
<svg width="700pt" height="700pt" version="1.1" viewBox="0 0 700 700" xmlns="http://www.w3.org/2000/svg">
 <g>
  <path fill="#ff7700c7" d="m262.5 490c-97.148 0-157.5-73.758-157.5-192.5 0-9.6641 7.8359-17.5 17.5-17.5h282.48c-1.6562-6.7266-2.4766-13.406-2.4766-20.004 0-44.578 37.957-79.082 39.578-80.535 6.6289-5.9453 16.715-5.9453 23.344 0 1.625 1.4531 39.578 35.957 39.578 80.535 0 1.7148-0.050781 3.4453-0.17188 5.168 46.449-2.8281 84.203 37.734 85.707 39.41 5.9453 6.6484 5.9453 16.695 0 23.344-1.4492 1.6172-35.938 39.582-80.539 39.582-11.363 0-22.883-2.418-34.438-7.2109-34.023 73.074-124.88 129.71-213.06 129.71zm-121.89-175c3.2734 47.859 22.516 140 121.89 140 80.246 0 165.96-57.004 187.17-124.47 1.6406-5.1875 5.5859-9.3203 10.684-11.191 5.1602-1.8711 10.785-1.2461 15.398 1.6641 12.027 7.6289 23.547 11.5 34.246 11.5 15.996 0 31.02-8.6055 41.223-16.27-10.168-7.6484-25.172-16.234-41.223-16.234-6.8711 0-14.117 1.6914-22.148 5.168-6.5781 2.8633-14.254 1.3828-19.328-3.6836-5.0742-5.0742-6.5469-12.73-3.6914-19.328 3.4844-8.043 5.1797-15.285 5.1797-22.156 0-15.988-8.6133-31.012-16.27-41.211-7.6602 10.176-16.238 25.172-16.238 41.211 0 9.0742 2.8359 18.867 8.4414 29.094 2.9727 5.4258 2.8555 12.004-0.28906 17.328-3.1445 5.3164-8.8711 8.582-15.055 8.582z"/>
  <path fill="#ff7700c7" d="m367.5 262.5h-52.5c-9.6641 0-17.5-7.8359-17.5-17.5v-52.5c0-9.6641 7.8359-17.5 17.5-17.5h52.5c9.6719 0 17.5 7.8359 17.5 17.5v52.5c0 9.6641-7.8281 17.5-17.5 17.5zm-35-35h17.5v-17.5h-17.5z"/>
  <path fill="#ff7700c7" d="m210 262.5h-52.5c-9.6641 0-17.5-7.8359-17.5-17.5v-52.5c0-9.6641 7.8359-17.5 17.5-17.5h52.5c9.6641 0 17.5 7.8359 17.5 17.5v52.5c0 9.6641-7.8359 17.5-17.5 17.5zm-35-35h17.5v-17.5h-17.5z"/>
  <path fill="#ff7700c7" d="m262.5 210h-52.5c-9.6641 0-17.5-7.8359-17.5-17.5v-52.5c0-9.6641 7.8359-17.5 17.5-17.5h52.5c9.6641 0 17.5 7.8359 17.5 17.5v52.5c0 9.6641-7.8359 17.5-17.5 17.5zm-35-35h17.5v-17.5h-17.5z"/>
  <path fill="#ff7700c7" d="m262.5 262.5h-52.5c-9.6641 0-17.5-7.8359-17.5-17.5v-52.5c0-9.6641 7.8359-17.5 17.5-17.5h52.5c9.6641 0 17.5 7.8359 17.5 17.5v52.5c0 9.6641-7.8359 17.5-17.5 17.5zm-35-35h17.5v-17.5h-17.5z"/>
  <path fill="#ff7700c7" d="m315 157.5h-52.5c-9.6641 0-17.5-7.8359-17.5-17.5v-52.5c0-9.6641 7.8359-17.5 17.5-17.5h52.5c9.6641 0 17.5 7.8359 17.5 17.5v52.5c0 9.6641-7.8359 17.5-17.5 17.5zm-35-35h17.5v-17.5h-17.5z"/>
  <path fill="#ff7700c7" d="m315 210h-52.5c-9.6641 0-17.5-7.8359-17.5-17.5v-52.5c0-9.6641 7.8359-17.5 17.5-17.5h52.5c9.6641 0 17.5 7.8359 17.5 17.5v52.5c0 9.6641-7.8359 17.5-17.5 17.5zm-35-35h17.5v-17.5h-17.5z"/>
  <path fill="#ff7700c7" d="m315 262.5h-52.5c-9.6641 0-17.5-7.8359-17.5-17.5v-52.5c0-9.6641 7.8359-17.5 17.5-17.5h52.5c9.6641 0 17.5 7.8359 17.5 17.5v52.5c0 9.6641-7.8359 17.5-17.5 17.5zm-35-35h17.5v-17.5h-17.5z"/>
  <path fill="#ff7700c7" d="m227.5 358.75c0 14.496-11.754 26.25-26.25 26.25s-26.25-11.754-26.25-26.25 11.754-26.25 26.25-26.25 26.25 11.754 26.25 26.25"/>
 </g>
</svg>
