<?xml version="1.0" encoding="UTF-8" standalone="no"?>
<!-- Uploaded to: SVG Repo, www.svgrepo.com, Generator: SVG Repo Mixer Tools -->

<svg
   xmlns="http://www.w3.org/2000/svg"
   width="1200"
   height="1200"
   viewBox="0 0 22.5 22.5"
   version="1.1"
   id="svg7301"
   style="fill:none"
>
  <defs
     id="defs7305" />
  <path
     fill="#ff7700c7"
     d="m 18.25,18.25 v 0.5 h 0.5 v -0.5 z m 0,-14 h 0.5 v -0.5 h -0.5 z m -6,0 v -0.5 h -0.20711 l -0.14644,0.146447 z m -8,8 L 3.896447,11.89645 3.75,12.04289 V 12.25 Z m 0,6 h -0.5 v 0.5 h 0.5 z m 4,-4 -0.22361,0.4472 0.0186,0.0093 0.01931,0.0077 z m 0,-6 v -0.5 c -0.27614,0 -0.5,0.22386 -0.5,0.5 z m 6,0 0.4642,-0.1857 -0.0077,-0.01931 -0.0093,-0.0186 z m 4.5,10 v -14 h -1 v 14 z m -0.5,-14.5 h -6 v 1 h 6 z M 11.89645,3.896447 3.896447,11.89645 4.603553,12.60355 12.60355,4.603553 Z M 3.75,12.25 v 6 h 1 v -6 z m 0.5,6.5 h 14 v -1 h -14 z M 17.8964,3.896447 3.896447,17.8964 4.603553,18.6036 18.6036,4.603553 Z M 8.75,14.25 v -6 h -1 v 6 z m -0.5,-5.5 h 6 v -1 h -6 z m -0.1857,5.9642 10,4 0.3714,-0.9284 -10,-4 z m 5.7215,-6.2785 4,10 0.9284,-0.3714 -4,-10 z M 11.80279,4.473607 13.8028,8.47361 14.6972,8.02639 12.69721,4.026393 Z M 4.026393,12.69721 8.02639,14.6972 8.47361,13.8028 4.473607,11.80279 Z"
     id="path7299"
    />
</svg>
