<?xml version="1.0" encoding="utf-8"?>
<!-- Svg Vector Icons : http://www.onlinewebfonts.com/icon -->
<!DOCTYPE svg PUBLIC "-//W3C//DTD SVG 1.1//EN" "http://www.w3.org/Graphics/SVG/1.1/DTD/svg11.dtd">
<svg version="1.1" xmlns="http://www.w3.org/2000/svg" xmlns:xlink="http://www.w3.org/1999/xlink" x="0px" y="0px" viewBox="0 0 1000 1000" enable-background="new 0 0 1000 1000" xml:space="preserve">
<metadata> Svg Vector Icons : http://www.onlinewebfonts.com/icon </metadata>
<g><g transform="translate(0.000000,511.000000) scale(0.100000,-0.100000)">
  <path fill="#ff7700ad" d="M1898.4,3810.1c74.7-137.9,1195.1-1966.9,1202.7-1965c11.5,0,1537.9,1966.9,1547.5,1991.8c3.8,9.6-586,17.2-1382.8,17.2H1873.5L1898.4,3810.1z"/>
  <path fill="#ff7700ad" d="M5345.7,3836.9c9.6-24.9,1536-1991.8,1547.5-1991.8c11.5-1.9,1302.3,1980.3,1302.3,1997.5c0,5.8-643.5,11.5-1428.7,11.5C5947.1,3854.2,5341.9,3846.5,5345.7,3836.9z"/>
  <path fill="#ff7700ad" d="M4248.3,2680.2l-739.3-1038l745-5.7c407.9-1.9,1078.2-1.9,1486.2,0l745,5.7l-739.3,1038c-406,572.6-743.1,1039.9-748.8,1039.9S4654.3,3252.8,4248.3,2680.2z"/>
  <path fill="#ff7700ad" d="M827.8,2662.9L100,1642.1l1321.5-5.7c727.8-1.9,1325.3,0,1329.1,3.8c11.5,9.6-1166.4,2039.7-1183.6,2041.6C1561.3,3681.8,1228.1,3222.2,827.8,2662.9z"/>
  <path fill="#ff7700ad" d="M7871.8,2666.8c-348.6-559.2-633.9-1018.9-633.9-1024.6s599.5-9.6,1331.1-9.6H9900l-685.6,1024.6c-375.4,563.1-689.5,1022.7-695.2,1024.6C8511.5,3681.8,8220.4,3224.1,7871.8,2666.8z"/>
  <path fill="#ff7700ad" d="M297.3,1169.1c471.1-496,4686.4-4803.3,4699.9-4803.3S9076.5,521.8,9687.4,1159.5l86.2,90h-1377H7017.6l-986.3-2394c-542-1315.7-988.2-2390.1-990.2-2388.2c-1.9,3.8,340.9,1072.5,762.3,2376.8c419.4,1304.2,764.1,2378.7,764.1,2388.2s-647.3,17.2-1570.4,17.2c-1011.2,0-1570.4-5.7-1570.4-19.2c0-9.6,344.7-1084,764.2-2388.2c421.3-1304.2,764.2-2371,762.2-2374.8c-1.9-1.9-448.2,1072.5-990.2,2388.2l-986.3,2394H1597.7h-1377L297.3,1169.1z"/></g></g>
</svg>