<?xml version="1.0" encoding="UTF-8" standalone="no"?>
<svg width="700pt" height="700pt" version="1.1" viewBox="0 0 700 700" 
xmlns="http://www.w3.org/2000/svg" xmlns:xlink="http://www.w3.org/1999/xlink">
  <defs
     id="defs77">
    <symbol
       id="y"
       overflow="visible">
      <path fill="#ff7700c7"
         d="m4.1719-0.25c-0.21875 0.11719-0.44922 0.19922-0.6875 0.25-0.23047 0.0625-0.46875 0.09375-0.71875 0.09375-0.75 0-1.3516-0.20703-1.7969-0.625-0.4375-0.42578-0.65625-1.0039-0.65625-1.7344 0-0.71875 0.21875-1.2852 0.65625-1.7031 0.44531-0.42578 1.0469-0.64062 1.7969-0.64062 0.25 0 0.48828 0.027344 0.71875 0.078125 0.23828 0.054688 0.46875 0.13672 0.6875 0.25v0.9375c-0.21875-0.14453-0.4375-0.25-0.65625-0.3125-0.21094-0.070312-0.42969-0.10938-0.65625-0.10938-0.41797 0-0.74609 0.13672-0.98438 0.40625-0.24219 0.26172-0.35938 0.625-0.35938 1.0938s0.11719 0.83984 0.35938 1.1094c0.23828 0.26172 0.56641 0.39062 0.98438 0.39062 0.22656 0 0.44531-0.03125 0.65625-0.09375 0.21875-0.070313 0.4375-0.17969 0.65625-0.32812z"
         id="path2" />
    </symbol>
    <symbol
       id="c"
       overflow="visible">
      <path fill="#ff7700c7"
         d="m3.0469-2.4688c-0.09375-0.050781-0.1875-0.085938-0.28125-0.10938-0.09375-0.019531-0.1875-0.03125-0.28125-0.03125-0.28125 0-0.5 0.09375-0.65625 0.28125-0.14844 0.17969-0.21875 0.43359-0.21875 0.76562v1.5625h-1.0938v-3.4062h1.0938v0.5625c0.13281-0.21875 0.28906-0.37891 0.46875-0.48438 0.1875-0.10156 0.40625-0.15625 0.65625-0.15625 0.039063 0 0.082031 0.007813 0.125 0.015625 0.039063 0 0.10156 0.007812 0.1875 0.015625z"
         id="path5" />
    </symbol>
    <symbol
       id="a"
       overflow="visible">
      <path fill="#ff7700c7"
         d="m3.9219-1.7031v0.29688h-2.5469c0.03125 0.26172 0.125 0.45312 0.28125 0.57812s0.375 0.1875 0.65625 0.1875c0.22656 0 0.46094-0.03125 0.70312-0.09375 0.23828-0.070313 0.48438-0.17578 0.73438-0.3125v0.84375c-0.25 0.09375-0.50781 0.16797-0.76562 0.21875-0.26172 0.050781-0.51562 0.078125-0.76562 0.078125-0.61719 0-1.0938-0.15625-1.4375-0.46875s-0.51562-0.75391-0.51562-1.3281c0-0.55078 0.16406-0.98438 0.5-1.2969 0.33203-0.32031 0.79688-0.48438 1.3906-0.48438 0.53125 0 0.95703 0.16406 1.2812 0.48438 0.32031 0.32422 0.48438 0.75781 0.48438 1.2969zm-1.125-0.375c0-0.19531-0.0625-0.35938-0.1875-0.48438-0.11719-0.13281-0.27344-0.20312-0.46875-0.20312-0.21094 0-0.38281 0.0625-0.51562 0.1875-0.125 0.11719-0.20312 0.28125-0.23438 0.5z"
         id="path8" />
    </symbol>
    <symbol
       id="k"
       overflow="visible">
      <path fill="#ff7700c7"
         d="m2.0469-1.5312c-0.23047 0-0.40234 0.042969-0.51562 0.125-0.11719 0.074219-0.17188 0.18359-0.17188 0.32812 0 0.13672 0.046875 0.24609 0.14062 0.32812 0.09375 0.074219 0.22266 0.10938 0.39062 0.10938 0.19531 0 0.36328-0.070313 0.5-0.21875 0.14453-0.14453 0.21875-0.32812 0.21875-0.54688v-0.125zm1.6562-0.40625v1.9375h-1.0938v-0.5c-0.14844 0.21094-0.3125 0.35938-0.5 0.45312-0.17969 0.09375-0.39844 0.14062-0.65625 0.14062-0.35547 0-0.64062-0.10156-0.85938-0.3125-0.21875-0.20703-0.32812-0.47266-0.32812-0.79688 0-0.40625 0.13281-0.69531 0.40625-0.875 0.28125-0.1875 0.71094-0.28125 1.2969-0.28125h0.64062v-0.09375c0-0.16406-0.070313-0.28906-0.20312-0.375-0.13672-0.082031-0.35156-0.125-0.64062-0.125-0.23047 0-0.44531 0.027344-0.64062 0.078125-0.19922 0.042969-0.38672 0.10938-0.5625 0.20312v-0.82812c0.22656-0.050781 0.46094-0.09375 0.70312-0.125 0.23828-0.03125 0.47266-0.046875 0.70312-0.046875 0.61328 0 1.0547 0.125 1.3281 0.375 0.26953 0.24219 0.40625 0.63281 0.40625 1.1719z"
         id="path11" />
    </symbol>
    <symbol
       id="b"
       overflow="visible">
      <path fill="#ff7700c7"
         d="m1.7031-4.3594v0.95312h1.125v0.78125h-1.125v1.4375c0 0.16797 0.03125 0.27734 0.09375 0.32812 0.0625 0.054687 0.1875 0.078125 0.375 0.078125h0.5625v0.78125h-0.9375c-0.42969 0-0.73047-0.085938-0.90625-0.26562-0.17969-0.17578-0.26562-0.48438-0.26562-0.92188v-1.4375h-0.54688v-0.78125h0.54688v-0.95312z"
         id="path14" />
    </symbol>
    <symbol
       id="j"
       overflow="visible">
      <path fill="#ff7700c7"
         d="m2.8438-2.9062v-1.8125h1.0781v4.7188h-1.0781v-0.48438c-0.15625 0.19922-0.32422 0.34375-0.5 0.4375-0.17969 0.09375-0.38672 0.14062-0.625 0.14062-0.41797 0-0.76172-0.16406-1.0312-0.5-0.27344-0.33203-0.40625-0.76562-0.40625-1.2969 0-0.51953 0.13281-0.94531 0.40625-1.2812 0.26953-0.33203 0.61328-0.5 1.0312-0.5 0.22656 0 0.42969 0.046875 0.60938 0.14062 0.1875 0.09375 0.35938 0.24219 0.51562 0.4375zm-0.71875 2.2031c0.22656 0 0.40625-0.082031 0.53125-0.25 0.125-0.17578 0.1875-0.42578 0.1875-0.75 0-0.32031-0.0625-0.56641-0.1875-0.73438-0.125-0.16406-0.30469-0.25-0.53125-0.25-0.24219 0-0.42188 0.085938-0.54688 0.25-0.11719 0.16797-0.17188 0.41406-0.17188 0.73438 0 0.32422 0.054688 0.57422 0.17188 0.75 0.125 0.16797 0.30469 0.25 0.54688 0.25z"
         id="path17" />
    </symbol>
    <symbol
       id="i"
       overflow="visible">
      <path fill="#ff7700c7"
         d="m2.3281-0.70312c0.23828 0 0.41406-0.082031 0.53125-0.25 0.125-0.17578 0.1875-0.42578 0.1875-0.75 0-0.32031-0.0625-0.56641-0.1875-0.73438-0.11719-0.16406-0.29297-0.25-0.53125-0.25-0.23047 0-0.40625 0.085938-0.53125 0.25-0.125 0.16797-0.1875 0.41406-0.1875 0.73438 0 0.32422 0.0625 0.57422 0.1875 0.75 0.125 0.16797 0.30078 0.25 0.53125 0.25zm-0.71875-2.2031c0.14453-0.19531 0.30469-0.34375 0.48438-0.4375 0.1875-0.09375 0.39844-0.14062 0.64062-0.14062 0.41406 0 0.75781 0.16797 1.0312 0.5 0.26953 0.33594 0.40625 0.76172 0.40625 1.2812 0 0.53125-0.13672 0.96484-0.40625 1.2969-0.27344 0.33594-0.61719 0.5-1.0312 0.5-0.24219 0-0.45312-0.046875-0.64062-0.14062-0.17969-0.09375-0.33984-0.23828-0.48438-0.4375v0.48438h-1.0938v-4.7188h1.0938z"
         id="path20" />
    </symbol>
    <symbol
       id="h"
       overflow="visible">
      <path fill="#ff7700c7"
         d="m0.078125-3.4062h1.0781l0.92188 2.3125 0.78125-2.3125h1.0781l-1.4219 3.7344c-0.14844 0.375-0.32031 0.63281-0.51562 0.78125-0.1875 0.15625-0.4375 0.23438-0.75 0.23438h-0.625v-0.71875h0.34375c0.17578 0 0.30469-0.03125 0.39062-0.09375 0.082031-0.054688 0.14844-0.15625 0.20312-0.3125l0.03125-0.09375z"
         id="path23" />
    </symbol>
    <symbol
       id="g"
       overflow="visible">
      <path fill="#ff7700c7"
         d="m3.7188-4.3906v0.95312c-0.24219-0.10156-0.48047-0.17969-0.71875-0.23438-0.24219-0.0625-0.46484-0.09375-0.67188-0.09375-0.28125 0-0.49219 0.042969-0.625 0.125-0.13672 0.074219-0.20312 0.1875-0.20312 0.34375 0 0.125 0.046875 0.22656 0.14062 0.29688 0.09375 0.0625 0.25391 0.11719 0.48438 0.15625l0.5 0.10938c0.50781 0.10547 0.86719 0.26172 1.0781 0.46875 0.20703 0.19922 0.3125 0.49219 0.3125 0.875 0 0.5-0.14844 0.875-0.4375 1.125-0.29297 0.24219-0.74609 0.35938-1.3594 0.35938-0.29297 0-0.58594-0.03125-0.875-0.09375-0.28125-0.050781-0.57031-0.12891-0.85938-0.23438v-0.98438c0.28906 0.14844 0.57031 0.26172 0.84375 0.34375 0.26953 0.074219 0.53125 0.10938 0.78125 0.10938s0.44141-0.039063 0.57812-0.125c0.13281-0.082031 0.20312-0.20312 0.20312-0.35938 0-0.14453-0.046875-0.25391-0.14062-0.32812-0.085938-0.070313-0.26562-0.14062-0.54688-0.20312l-0.45312-0.10938c-0.44922-0.09375-0.77734-0.24219-0.98438-0.45312-0.21094-0.21875-0.3125-0.50391-0.3125-0.85938 0-0.45703 0.14453-0.80469 0.4375-1.0469 0.28906-0.23828 0.70703-0.35938 1.25-0.35938 0.25 0 0.50391 0.023437 0.76562 0.0625 0.25781 0.03125 0.53125 0.085937 0.8125 0.15625z"
         id="path26" />
    </symbol>
    <symbol
       id="x"
       overflow="visible">
      <path fill="#ff7700c7"
         d="m3.3281-0.82812h-1.8281l-0.29688 0.82812h-1.1719l1.6719-4.5312h1.4062l1.6719 4.5312h-1.1719zm-1.5469-0.84375h1.25l-0.625-1.7969z"
         id="path29" />
    </symbol>
    <symbol
       id="w"
       overflow="visible">
      <path fill="#ff7700c7"
         d="m0.57812-4.5312h1.4844l1.0312 2.4219 1.0312-2.4219h1.4844v4.5312h-1.0938v-3.3125l-1.0469 2.4375h-0.75l-1.0469-2.4375v3.3125h-1.0938z"
         id="path32" />
    </symbol>
    <symbol
       id="v"
       overflow="visible">
      <path fill="#ff7700c7"
         d="m1.7344-3.6562v2.7656h0.42188c0.47656 0 0.84375-0.11328 1.0938-0.34375 0.25-0.23828 0.375-0.58203 0.375-1.0312 0-0.45703-0.125-0.80078-0.375-1.0312-0.25-0.23828-0.61719-0.35938-1.0938-0.35938zm-1.1562-0.875h1.2188c0.69531 0 1.2109 0.054688 1.5469 0.15625 0.33203 0.09375 0.61719 0.25781 0.85938 0.48438 0.21875 0.21094 0.37891 0.44922 0.48438 0.71875 0.10156 0.26172 0.15625 0.5625 0.15625 0.90625 0 0.33594-0.054688 0.63672-0.15625 0.90625-0.10547 0.27344-0.26562 0.51172-0.48438 0.71875-0.24219 0.23047-0.53125 0.39844-0.875 0.5-0.33594 0.09375-0.84375 0.14062-1.5312 0.14062h-1.2188z"
         id="path35" />
    </symbol>
    <symbol
       id="f"
       overflow="visible">
      <path fill="#ff7700c7"
         d="m3.1719-3.2969v0.82812c-0.23047-0.09375-0.45312-0.16406-0.67188-0.21875-0.21094-0.050781-0.41406-0.078125-0.60938-0.078125-0.21094 0-0.36719 0.027344-0.46875 0.078125-0.09375 0.054688-0.14062 0.13672-0.14062 0.25 0 0.085938 0.035156 0.15234 0.10938 0.20312 0.082031 0.042969 0.21875 0.074219 0.40625 0.09375l0.20312 0.03125c0.55078 0.074219 0.92188 0.19531 1.1094 0.35938 0.19531 0.15625 0.29688 0.40625 0.29688 0.75 0 0.36719-0.13672 0.64062-0.40625 0.82812-0.26172 0.17578-0.65625 0.26562-1.1875 0.26562-0.23047 0-0.46484-0.023438-0.70312-0.0625-0.24219-0.03125-0.48438-0.082031-0.73438-0.15625v-0.82812c0.21875 0.10547 0.4375 0.18359 0.65625 0.23438 0.22656 0.054688 0.46094 0.078125 0.70312 0.078125 0.20703 0 0.36328-0.023437 0.46875-0.078125 0.11328-0.0625 0.17188-0.14844 0.17188-0.26562 0-0.09375-0.039062-0.16016-0.10938-0.20312-0.074219-0.050781-0.21875-0.09375-0.4375-0.125l-0.20312-0.03125c-0.48047-0.050781-0.82031-0.16016-1.0156-0.32812-0.1875-0.16406-0.28125-0.41406-0.28125-0.75 0-0.35156 0.11719-0.61719 0.35938-0.79688 0.25-0.17578 0.62891-0.26562 1.1406-0.26562 0.19531 0 0.40625 0.015625 0.625 0.046875 0.22656 0.03125 0.46875 0.078125 0.71875 0.14062z"
         id="path38" />
    </symbol>
    <symbol
       id="u"
       overflow="visible">
      <path fill="#ff7700c7"
         d="m0.51562-3.4062h1.0938v3.4062h-1.0938zm0-1.3125h1.0938v0.875h-1.0938z"
         id="path41" />
    </symbol>
    <symbol
       id="t"
       overflow="visible">
      <path fill="#ff7700c7"
         d="m2.8438-0.57812c-0.15625 0.19922-0.32422 0.34375-0.5 0.4375-0.17969 0.09375-0.38672 0.14062-0.625 0.14062-0.41797 0-0.76172-0.16016-1.0312-0.48438-0.27344-0.33203-0.40625-0.75-0.40625-1.25 0-0.50781 0.13281-0.92578 0.40625-1.25 0.26953-0.33203 0.61328-0.5 1.0312-0.5 0.23828 0 0.44531 0.046875 0.625 0.14062 0.17578 0.09375 0.34375 0.24609 0.5 0.45312v-0.51562h1.0781v3.0625c0 0.55078-0.17188 0.96875-0.51562 1.25-0.34375 0.28906-0.84375 0.4375-1.5 0.4375-0.21094 0-0.41406-0.015625-0.60938-0.046875-0.19922-0.03125-0.39844-0.085937-0.59375-0.15625v-0.84375c0.1875 0.11328 0.36719 0.19531 0.54688 0.25 0.1875 0.050781 0.36719 0.078125 0.54688 0.078125 0.36328 0 0.62891-0.078125 0.79688-0.23438 0.16406-0.15625 0.25-0.39844 0.25-0.73438zm-0.71875-2.1094c-0.23047 0-0.40625 0.085938-0.53125 0.25-0.125 0.15625-0.1875 0.39062-0.1875 0.70312s0.054688 0.54688 0.17188 0.70312c0.125 0.15625 0.30469 0.23438 0.54688 0.23438 0.21875 0 0.39062-0.078125 0.51562-0.23438 0.13281-0.16406 0.20312-0.39844 0.20312-0.70312 0-0.3125-0.070312-0.54688-0.20312-0.70312-0.125-0.16406-0.29688-0.25-0.51562-0.25z"
         id="path44" />
    </symbol>
    <symbol
       id="e"
       overflow="visible">
      <path fill="#ff7700c7"
         d="m3.9375-2.0781v2.0781h-1.0938v-1.5781c0-0.30078-0.007812-0.50391-0.015625-0.60938-0.011719-0.11328-0.03125-0.19531-0.0625-0.25-0.042969-0.070312-0.10156-0.125-0.17188-0.15625-0.074219-0.039062-0.15625-0.0625-0.25-0.0625-0.23047 0-0.41406 0.089844-0.54688 0.26562-0.125 0.16797-0.1875 0.40625-0.1875 0.71875v1.6719h-1.0938v-3.4062h1.0938v0.5c0.16406-0.19531 0.33594-0.34375 0.51562-0.4375 0.1875-0.09375 0.39062-0.14062 0.60938-0.14062 0.39453 0 0.69141 0.12109 0.89062 0.35938 0.20703 0.24219 0.3125 0.58984 0.3125 1.0469z"
         id="path47" />
    </symbol>
    <symbol
       id="s"
       overflow="visible">
      <path fill="#ff7700c7"
         d="m2.7656-4.7188v0.70312h-0.60938c-0.15625 0-0.26562 0.03125-0.32812 0.09375-0.054687 0.054687-0.078125 0.14844-0.078125 0.28125v0.23438h0.92188v0.78125h-0.92188v2.625h-1.0938v-2.625h-0.53125v-0.78125h0.53125v-0.23438c0-0.36328 0.10156-0.63281 0.3125-0.8125 0.20703-0.17578 0.52344-0.26562 0.95312-0.26562z"
         id="path50" />
    </symbol>
    <symbol
       id="d"
       overflow="visible">
      <path fill="#ff7700c7"
         d="m2.1406-2.7031c-0.24219 0-0.42188 0.089844-0.54688 0.26562-0.125 0.16797-0.1875 0.41406-0.1875 0.73438 0 0.33594 0.0625 0.58984 0.1875 0.76562 0.125 0.16797 0.30469 0.25 0.54688 0.25 0.23828 0 0.42188-0.082031 0.54688-0.25 0.125-0.17578 0.1875-0.42969 0.1875-0.76562 0-0.32031-0.0625-0.56641-0.1875-0.73438-0.125-0.17578-0.30859-0.26562-0.54688-0.26562zm0-0.78125c0.58203 0 1.0352 0.16406 1.3594 0.48438 0.33203 0.3125 0.5 0.74609 0.5 1.2969 0 0.5625-0.16797 1.0078-0.5 1.3281-0.32422 0.3125-0.77734 0.46875-1.3594 0.46875-0.58594 0-1.043-0.15625-1.375-0.46875-0.33594-0.32031-0.5-0.76562-0.5-1.3281 0-0.55078 0.16406-0.98438 0.5-1.2969 0.33203-0.32031 0.78906-0.48438 1.375-0.48438z"
         id="path53" />
    </symbol>
    <symbol
       id="r"
       overflow="visible">
      <path fill="#ff7700c7"
         d="m3.6719-2.8438c0.13281-0.20703 0.29688-0.36328 0.48438-0.46875 0.19531-0.11328 0.40625-0.17188 0.625-0.17188 0.39453 0 0.69141 0.12109 0.89062 0.35938 0.20703 0.24219 0.3125 0.58984 0.3125 1.0469v2.0781h-1.0938v-1.7656-0.078125c0.007813-0.03125 0.015625-0.078125 0.015625-0.14062 0-0.23828-0.039062-0.41016-0.10938-0.51562-0.074219-0.10156-0.1875-0.15625-0.34375-0.15625-0.21094 0-0.37109 0.085938-0.48438 0.25-0.10547 0.16797-0.16406 0.41406-0.17188 0.73438v1.6719h-1.0938v-1.7656c0-0.38281-0.03125-0.62891-0.09375-0.73438-0.0625-0.10156-0.17969-0.15625-0.34375-0.15625-0.21094 0-0.37109 0.085938-0.48438 0.25-0.11719 0.16797-0.17188 0.41406-0.17188 0.73438v1.6719h-1.0938v-3.4062h1.0938v0.5c0.13281-0.1875 0.28516-0.32812 0.45312-0.42188 0.17578-0.10156 0.36719-0.15625 0.57812-0.15625 0.23828 0 0.44531 0.058594 0.625 0.17188 0.17578 0.11719 0.3125 0.27344 0.40625 0.46875z"
         id="path56" />
    </symbol>
    <symbol
       id="q"
       overflow="visible">
      <path fill="#ff7700c7"
         d="m3.9375-2.0781v2.0781h-1.0938v-1.5781c0-0.30078-0.007812-0.50391-0.015625-0.60938-0.011719-0.11328-0.03125-0.19531-0.0625-0.25-0.042969-0.070312-0.10156-0.125-0.17188-0.15625-0.074219-0.039062-0.15625-0.0625-0.25-0.0625-0.23047 0-0.41406 0.089844-0.54688 0.26562-0.125 0.16797-0.1875 0.40625-0.1875 0.71875v1.6719h-1.0938v-4.7188h1.0938v1.8125c0.16406-0.19531 0.33594-0.34375 0.51562-0.4375 0.1875-0.09375 0.39062-0.14062 0.60938-0.14062 0.39453 0 0.69141 0.12109 0.89062 0.35938 0.20703 0.24219 0.3125 0.58984 0.3125 1.0469z"
         id="path59" />
    </symbol>
    <symbol
       id="p"
       overflow="visible">
      <path fill="#ff7700c7"
         d="m0.57812-4.5312h1.2969l1.6562 3.1094v-3.1094h1.1094v4.5312h-1.3125l-1.6562-3.1094v3.1094h-1.0938z"
         id="path62" />
    </symbol>
    <symbol
       id="o"
       overflow="visible">
      <path fill="#ff7700c7"
         d="m0.48438-1.3281v-2.0781h1.0938v0.34375 0.70312 0.54688c0 0.27344 0.003906 0.46875 0.015625 0.59375 0.007812 0.125 0.035156 0.21484 0.078125 0.26562 0.039063 0.074219 0.097656 0.13281 0.17188 0.17188 0.070312 0.03125 0.15625 0.046875 0.25 0.046875 0.21875 0 0.39062-0.082031 0.51562-0.25 0.13281-0.17578 0.20312-0.42188 0.20312-0.73438v-1.6875h1.0938v3.4062h-1.0938v-0.48438c-0.15625 0.19922-0.32812 0.34375-0.51562 0.4375s-0.39062 0.14062-0.60938 0.14062c-0.38672 0-0.68359-0.11719-0.89062-0.35938-0.21094-0.25-0.3125-0.60156-0.3125-1.0625z"
         id="path65" />
    </symbol>
    <symbol
       id="n"
       overflow="visible">
      <path fill="#ff7700c7"
         d="m0.57812-4.5312h1.9375c0.57031 0 1.0078 0.13281 1.3125 0.39062 0.3125 0.25 0.46875 0.60938 0.46875 1.0781 0 0.48047-0.15625 0.85156-0.46875 1.1094-0.30469 0.25-0.74219 0.375-1.3125 0.375h-0.78125v1.5781h-1.1562zm1.1562 0.84375v1.2656h0.65625c0.22656 0 0.39844-0.050781 0.51562-0.15625 0.125-0.11328 0.1875-0.27344 0.1875-0.48438 0-0.19531-0.0625-0.34766-0.1875-0.45312-0.11719-0.11328-0.28906-0.17188-0.51562-0.17188z"
         id="path68" />
    </symbol>
    <symbol
       id="m"
       overflow="visible">
      <path fill="#ff7700c7"
         d="m0.51562-3.4062h1.0938v3.3438c0 0.45703-0.10938 0.80469-0.32812 1.0469-0.21875 0.23828-0.53906 0.35938-0.95312 0.35938h-0.53125v-0.71875h0.1875c0.20703 0 0.34766-0.046875 0.42188-0.14062 0.070312-0.09375 0.10938-0.27734 0.10938-0.54688zm0-1.3125h1.0938v0.875h-1.0938z"
         id="path71" />
    </symbol>
    <symbol
       id="l"
       overflow="visible">
      <path fill="#ff7700c7"
         d="m3.2656-3.2969v0.89062c-0.14844-0.10156-0.29297-0.17578-0.4375-0.21875-0.14844-0.050781-0.30469-0.078125-0.46875-0.078125-0.30469 0-0.53906 0.089844-0.70312 0.26562-0.16797 0.17969-0.25 0.42188-0.25 0.73438 0 0.32422 0.082031 0.57422 0.25 0.75 0.16406 0.17969 0.39844 0.26562 0.70312 0.26562 0.17578 0 0.33594-0.023438 0.48438-0.078125 0.15625-0.050781 0.29688-0.125 0.42188-0.21875v0.89062c-0.16797 0.0625-0.33984 0.10938-0.51562 0.14062-0.17969 0.03125-0.35547 0.046875-0.53125 0.046875-0.60547 0-1.0859-0.15625-1.4375-0.46875-0.34375-0.32031-0.51562-0.76562-0.51562-1.3281 0-0.55078 0.17188-0.98438 0.51562-1.2969 0.35156-0.32031 0.83203-0.48438 1.4375-0.48438 0.1875 0 0.36328 0.015625 0.53125 0.046875 0.17578 0.03125 0.34766 0.078125 0.51562 0.14062z"
         id="path74" />
    </symbol>
  </defs>
  <path fill="#ff7700c7"
     id="path79"
     d="M 580.22,454.72 H 119.77 c -24.766,0 -44.801,-20.16 -44.801,-44.801 v -276.89 c 0,-24.766 20.16,-44.801 44.801,-44.801 h 196.38 c 3.4844,0 6.2227,2.7383 6.2227,6.2227 0,3.4844 -2.7383,6.2227 -6.2227,6.2227 H 119.77 c -17.922,0 -32.355,14.559 -32.355,32.355 v 276.89 c 0,17.922 14.559,32.355 32.355,32.355 h 460.45 c 17.922,0 32.355,-14.559 32.355,-32.355 v -276.89 c 0,-17.922 -14.559,-32.355 -32.355,-32.355 -3.4844,0 -6.2227,-2.7383 -6.2227,-6.2227 0,-3.4844 2.7383,-6.2227 6.2227,-6.2227 24.766,0 44.801,20.16 44.801,44.801 v 276.89 c 0,24.637 -20.16,44.797 -44.801,44.797 z" />
  <path fill="#ff7700c7"
     id="path81"
     d="m 301.09,529.39 c -0.99609,0 -1.9922,-0.25 -2.8633,-0.74609 -2.9883,-1.6172 -4.2305,-5.3516 -2.6133,-8.4609 12.07,-22.898 12.07,-44.801 0,-69.066 -1.4922,-3.1094 -0.25,-6.8438 2.7383,-8.3359 3.1094,-1.4922 6.8438,-0.25 8.3359,2.7383 13.812,27.625 13.812,54.008 0,80.391 -1.2422,2.2344 -3.3594,3.4805 -5.5977,3.4805 z m 97.812,0 c -2.2383,0 -4.3555,-1.2461 -5.4766,-3.3594 -13.938,-26.383 -13.938,-52.641 0,-80.391 1.4922,-3.1094 5.2266,-4.3555 8.3359,-2.7383 3.1094,1.4922 4.3555,5.2266 2.7383,8.3359 -12.07,24.141 -12.07,46.043 0,69.066 1.6172,2.9883 0.375,6.8438 -2.6133,8.4609 -0.99219,0.375 -1.9883,0.625 -2.9844,0.625 z" />
  <path fill="#ff7700c7"
     id="path83"
     d="M 428.52,529.39 H 271.47 c -3.4844,0 -6.2227,-2.7383 -6.2227,-6.2227 0,-3.4844 2.7383,-6.2227 6.2227,-6.2227 h 157.05 c 3.4844,0 6.2227,2.7383 6.2227,6.2227 -0.004,3.4844 -2.7422,6.2227 -6.2266,6.2227 z" />
  <path fill="#ff7700c7"
     id="path85"
     d="m 448.19,158.17 c -77.527,0 -138.26,-28 -138.26,-63.715 0,-35.715 60.73,-63.715 138.26,-63.715 77.53,0 138.26,27.875 138.26,63.59 0,35.715 -60.73,63.84 -138.26,63.84 z m 0,-115.11 c -34.348,0 -66.578,5.8477 -90.719,16.301 -22.277,9.707 -34.969,22.398 -34.969,34.969 0,12.571 12.816,25.262 34.969,34.969 24.266,10.578 56.496,16.301 90.719,16.301 34.223,0 66.578,-5.8477 90.719,-16.426 22.277,-9.707 34.969,-22.398 34.969,-34.969 0,-12.571 -12.816,-25.262 -34.969,-34.969 C 514.768,48.908 482.538,43.06 448.19,43.06 Z" />
  <path fill="#ff7700c7"
     id="path87"
     d="m 448.19,228.48 c -77.527,0 -138.26,-28 -138.26,-63.715 0,-3.4844 2.7383,-6.2227 6.2227,-6.2227 3.4844,0 6.2227,2.7383 6.2227,6.2227 0,24.766 50.523,51.27 125.81,51.27 75.287,0 125.81,-26.508 125.81,-51.27 0,-3.4844 2.7383,-6.2227 6.2227,-6.2227 3.4844,0 6.2227,2.7383 6.2227,6.2227 0,35.715 -60.73,63.715 -138.26,63.715 z" />
  <path fill="#ff7700c7"
     id="path89"
     d="m 448.19,298.91 c -77.527,0 -138.26,-28 -138.26,-63.715 0,-3.4844 2.7383,-6.2227 6.2227,-6.2227 3.4844,0 6.2227,2.7383 6.2227,6.2227 0,24.766 50.523,51.27 125.81,51.27 75.289,0.004 125.81,-26.504 125.81,-51.27 0,-3.4844 2.7383,-6.2227 6.2227,-6.2227 3.4844,0 6.2227,2.7383 6.2227,6.2227 0,35.715 -60.73,63.715 -138.26,63.715 z" />
  <path fill="#ff7700c7"
     id="path91"
     d="m 316.15,241.42 c -3.4844,0 -6.2227,-2.7383 -6.2227,-6.2227 v -140.87 c 0,-3.4844 2.7383,-6.2227 6.2227,-6.2227 3.4844,0 6.2227,2.7383 6.2227,6.2227 v 140.87 c 0,3.3594 -2.7383,6.2227 -6.2227,6.2227 z" />
  <path fill="#ff7700c7"
     id="path93"
     d="m 580.22,241.42 c -3.4844,0 -6.2227,-2.7383 -6.2227,-6.2227 v -140.87 c 0,-3.4844 2.7383,-6.2227 6.2227,-6.2227 3.4844,0 6.2227,2.7383 6.2227,6.2227 v 140.87 c 0,3.3594 -2.8633,6.2227 -6.2227,6.2227 z" />
  <path fill="#ff7700c7"
     id="path95"
     d="m 170.3,287.71 c -1.3672,0 -2.7383,-0.49609 -3.9805,-1.3672 l -43.43,-35.465 c -1.4922,-1.1211 -2.2383,-2.9883 -2.2383,-4.8516 0,-1.8672 0.87109,-3.6094 2.2383,-4.8516 l 43.43,-35.465 c 2.6133,-2.1172 6.5938,-1.7422 8.7109,0.87109 2.1172,2.6133 1.7422,6.5938 -0.87109,8.7109 l -37.582,30.738 37.582,30.738 c 2.6133,2.1172 3.1094,6.0977 0.87109,8.7109 -1.1211,1.4844 -2.9883,2.2305 -4.7305,2.2305 z" />
  <path fill="#ff7700c7"
     id="path97"
     d="m 248.7,287.71 c -1.7422,0 -3.6094,-0.74609 -4.8516,-2.2383 -2.1172,-2.6133 -1.7422,-6.5938 0.87109,-8.7109 l 37.457,-30.738 -37.461,-30.738 c -2.6133,-2.1172 -3.1094,-6.0977 -0.87109,-8.7109 2.2383,-2.6133 6.0977,-3.1094 8.7109,-0.87109 l 43.43,35.465 c 1.4922,1.1211 2.2383,2.9883 2.2383,4.8516 0,1.8672 -0.87109,3.6094 -2.2383,4.8516 l -43.43,35.465 c -0.99609,0.87891 -2.4883,1.375 -3.8555,1.375 z" />
  <path fill="#ff7700c7"
     id="path99"
     d="m 198.43,293.56 c -0.49609,0 -1.1211,-0.125 -1.6172,-0.25 -3.3594,-0.87109 -5.3516,-4.3555 -4.3555,-7.5898 l 22.152,-82.754 c 0.87109,-3.3594 4.3555,-5.3516 7.5898,-4.3555 3.3594,0.87109 5.3516,4.3555 4.3555,7.5898 l -22.152,82.758 c -0.74609,2.7383 -3.2344,4.6016 -5.9727,4.6016 z" />
  <path fill="#ff7700c7"
     id="path101"
     d="m 230.91,347.95 h -101.3 c -3.4844,0 -6.2227,-2.7383 -6.2227,-6.2227 0,-3.4844 2.7383,-6.2227 6.2227,-6.2227 h 101.3 c 3.4844,0 6.2227,2.7383 6.2227,6.2227 0,3.4844 -2.8633,6.2227 -6.2227,6.2227 z" />
  <path fill="#ff7700c7"
     id="path103"
     d="m 303.33,347.95 h -36.836 c -3.4844,0 -6.2227,-2.7383 -6.2227,-6.2227 0,-3.4844 2.7383,-6.2227 6.2227,-6.2227 h 36.836 c 3.4844,0 6.2227,2.7383 6.2227,6.2227 0,3.4844 -2.7383,6.2227 -6.2227,6.2227 z" />
  <path fill="#ff7700c7"
     id="path105"
     d="m 408.12,347.95 h -36.836 c -3.4844,0 -6.2227,-2.7383 -6.2227,-6.2227 0,-3.4844 2.7383,-6.2227 6.2227,-6.2227 h 36.836 c 3.4844,0 6.2227,2.7383 6.2227,6.2227 -0.004,3.4844 -2.8633,6.2227 -6.2227,6.2227 z" />
  <path fill="#ff7700c7"
     id="path107"
     d="m 572.63,347.95 h -128.8 c -3.4844,0 -6.2227,-2.7383 -6.2227,-6.2227 0,-3.4844 2.7383,-6.2227 6.2227,-6.2227 h 128.93 c 3.4844,0 6.2227,2.7383 6.2227,6.2227 -0.004,3.4844 -2.8633,6.2227 -6.3477,6.2227 z" />
  <path fill="#ff7700c7"
     id="path109"
     d="m 202.29,393.74 h -72.676 c -3.4844,0 -6.2227,-2.7383 -6.2227,-6.2227 0,-3.4844 2.7383,-6.2227 6.2227,-6.2227 h 72.676 c 3.4844,0 6.2227,2.7383 6.2227,6.2227 0,3.4844 -2.8633,6.2227 -6.2227,6.2227 z" />
  <path fill="#ff7700c7"
     id="path111"
     d="M 418.57,393.74 H 240.86 c -3.4844,0 -6.2227,-2.7383 -6.2227,-6.2227 0,-3.4844 2.7383,-6.2227 6.2227,-6.2227 h 177.71 c 3.4844,0 6.2227,2.7383 6.2227,6.2227 0,3.4844 -2.7383,6.2227 -6.2227,6.2227 z" />
  <path fill="#ff7700c7"
     id="path113"
     d="m 497.22,393.74 h -32.105 c -3.4844,0 -6.2227,-2.7383 -6.2227,-6.2227 0,-3.4844 2.7383,-6.2227 6.2227,-6.2227 h 32.105 c 3.4844,0 6.2227,2.7383 6.2227,6.2227 0,3.4844 -2.8633,6.2227 -6.2227,6.2227 z" />
  <path fill="#ff7700c7"
     id="path115"
     d="m 573.13,393.74 h -32.105 c -3.4844,0 -6.2227,-2.7383 -6.2227,-6.2227 0,-3.4844 2.7383,-6.2227 6.2227,-6.2227 h 32.105 c 3.4844,0 6.2227,2.7383 6.2227,6.2227 0,3.4844 -2.8633,6.2227 -6.2227,6.2227 z" />
  <path fill="#ff7700c7"
     id="path117"
     d="m 276.7,161.53 h -71.059 c -3.4844,0 -6.2227,-2.7383 -6.2227,-6.2227 0,-3.4844 2.7383,-6.2227 6.2227,-6.2227 H 276.7 c 3.4844,0 6.2227,2.7383 6.2227,6.2227 0,3.4883 -2.7383,6.2227 -6.2227,6.2227 z" />
  <path fill="#ff7700c7"
     id="path119"
     d="m 166.94,161.53 h -37.332 c -3.4844,0 -6.2227,-2.7383 -6.2227,-6.2227 0,-3.4844 2.7383,-6.2227 6.2227,-6.2227 h 37.457 c 3.4844,0 6.2227,2.7383 6.2227,6.2227 0,3.4883 -2.8633,6.2227 -6.3477,6.2227 z" />
</svg>
