<?xml version="1.0" encoding="UTF-8"?>
<svg fill="#ff7700c7;" width="700pt" height="700pt" version="1.1" viewBox="0 0 700 700" xmlns="http://www.w3.org/2000/svg">
 <g>
  <path fill="#ff7700c7" d="m575.28 69.555h-450.55c-6.832 0.007812-13.387 2.7227-18.219 7.5547-4.832 4.832-7.5469 11.383-7.5547 18.219v302.46c0.003906 6.8359 2.7227 13.387 7.5547 18.223 4.832 4.8359 11.383 7.5547 18.219 7.5664h154.87v43.363c-19.516 1.4531-39.004 3.4297-58.43 6.0938-2.3008 0.3125-4.3828 1.5273-5.7812 3.3789-1.4023 1.8477-2.0078 4.1836-1.6875 6.4805 0.71875 4.7539 5.0938 8.0664 9.8633 7.4688 83.902-11.52 168.99-11.52 252.89 0 0.40234 0.054687 0.80859 0.082031 1.2109 0.085937 4.5977-0.011718 8.3984-3.5742 8.7109-8.1562 0.30859-4.5859-2.9805-8.6289-7.5312-9.2578-19.426-2.6641-38.914-4.6406-58.43-6.0938v-43.363h154.87c6.8359-0.011719 13.391-2.7305 18.223-7.5664 4.8281-4.8359 7.5469-11.391 7.5508-18.223v-302.46c-0.007812-6.832-2.7227-13.387-7.5547-18.219-4.832-4.832-11.383-7.5469-18.219-7.5547zm-450.56 17.5h450.56c4.5664 0.003906 8.2695 3.707 8.2734 8.2734v206.65h-467.1v-206.65c0.003906-4.5664 3.707-8.2695 8.2734-8.2734zm278.19 378.79 0.003906 0.003906c-35.246-1.9727-70.574-1.9727-105.82 0v-42.27h105.82zm172.37-59.77-450.55 0.003907c-4.5703-0.011719-8.2695-3.7188-8.2734-8.2891v-78.309h467.1v78.309c-0.003906 4.5703-3.7031 8.2773-8.2734 8.2891z"/>
  <path fill="#ff7700c7" d="m350 338.24c-7.3047 0.003906-14.309 2.9062-19.473 8.0742-5.1602 5.1641-8.0625 12.172-8.0586 19.477 0 7.3047 2.9062 14.309 8.0703 19.469 5.168 5.1641 12.176 8.0625 19.477 8.0625 7.3047-0.003907 14.309-2.9062 19.473-8.0742 5.1641-5.1641 8.0625-12.172 8.0625-19.477-0.011719-7.3008-2.918-14.301-8.0859-19.461-5.1641-5.1602-12.164-8.0625-19.465-8.0703zm0 37.582c-4.0586-0.003907-7.7188-2.4531-9.2695-6.2031s-0.69141-8.0664 2.1797-10.938 7.1875-3.7305 10.938-2.1797c3.75 1.5547 6.1992 5.2109 6.2031 9.2695-0.011719 5.5469-4.5039 10.039-10.051 10.051z"/>
  <path fill="#ff7700c7" d="m385.94 163.45 36.758 36.383-36.762 36.383h0.003906c-1.6875 1.625-2.6523 3.8555-2.6797 6.1992-0.027344 2.3398 0.88281 4.5938 2.5273 6.2578 1.6445 1.6641 3.8906 2.5977 6.2305 2.5977 2.3398-0.003906 4.582-0.94531 6.2266-2.6133l43.051-42.605-0.003906 0.003907c1.6641-1.6445 2.5977-3.8867 2.5977-6.2227 0-2.3359-0.93359-4.5781-2.5977-6.2188l-43.051-42.605h0.003906c-1.6445-1.668-3.8867-2.6094-6.2266-2.6094-2.3398-0.003907-4.5859 0.92969-6.2305 2.5938-1.6445 1.6641-2.5547 3.918-2.5273 6.2617 0.027343 2.3398 0.99219 4.5703 2.6797 6.1953z"/>
  <path fill="#ff7700c7" d="m301.75 248.66c1.6445 1.668 3.8867 2.6094 6.2266 2.6133 2.3398 0 4.5859-0.93359 6.2305-2.5977 1.6445-1.6641 2.5547-3.918 2.5273-6.2617-0.027343-2.3398-0.99219-4.5703-2.6797-6.1953l-36.758-36.383 36.762-36.383h-0.003906c1.6875-1.625 2.6523-3.8555 2.6797-6.1953 0.027344-2.3438-0.88281-4.5977-2.5273-6.2617-1.6445-1.6641-3.8906-2.5977-6.2305-2.5938-2.3398 0-4.582 0.94141-6.2266 2.6094l-43.051 42.605h0.003906c-1.6641 1.6406-2.5977 3.8828-2.5977 6.2188 0 2.3359 0.93359 4.5781 2.5977 6.2227z"/>
  <path fill="#ff7700c7" d="m325.97 269.16c0.96875 0.35156 1.9922 0.53125 3.0234 0.53125 3.668-0.003906 6.9453-2.2891 8.2227-5.7266l46.93-127.61h-0.003907c1.6719-4.5391-0.65234-9.5742-5.1953-11.246-4.5391-1.668-9.5742 0.65625-11.242 5.1953l-46.93 127.61v0.003906c-1.6602 4.5391 0.66406 9.5664 5.1953 11.242z"/>
 </g>
</svg>
